<?xml version="1.0" standalone="no"?>
<!DOCTYPE svg PUBLIC "-//W3C//DTD SVG 20010904//EN"
 "http://www.w3.org/TR/2001/REC-SVG-20010904/DTD/svg10.dtd">
<svg version="1.0" xmlns="http://www.w3.org/2000/svg"
 width="700.000000pt" height="700.000000pt" viewBox="0 0 700.000000 700.000000"
 preserveAspectRatio="xMidYMid meet">
<metadata>
Created by potrace 1.14, written by Peter Selinger 2001-2017
</metadata>
<g transform="translate(0.000000,700.000000) scale(0.100000,-0.100000)"
fill="#000000" stroke="none">
<path d="M5019 6607 c-283 -157 -369 -211 -369 -231 0 -23 16 -90 29 -121 5
-11 15 -36 21 -55 7 -19 40 -98 72 -176 l59 -141 -39 -61 c-21 -33 -44 -74
-51 -91 -14 -32 -22 -35 -126 -46 -33 -4 -71 -8 -85 -10 -145 -21 -187 -28
-200 -31 -8 -2 -34 -8 -58 -14 -87 -21 -82 -2 -82 -295 0 -297 -8 -272 97
-299 61 -15 240 -43 333 -52 64 -6 101 -12 105 -16 1 -2 13 -23 25 -48 13 -25
36 -64 52 -88 34 -49 35 -42 -27 -177 -17 -38 -38 -88 -45 -110 -7 -22 -16
-44 -20 -50 -13 -16 -60 -174 -60 -199 0 -20 29 -41 198 -137 108 -62 204
-118 212 -124 34 -27 61 -25 94 8 36 37 87 95 133 152 17 22 54 69 83 105 28
35 59 76 67 91 16 27 17 27 129 27 l114 -1 84 -111 c104 -137 220 -272 246
-286 17 -9 55 9 232 111 117 67 221 129 230 137 12 10 16 24 13 42 -10 57 -48
166 -104 298 -79 186 -77 177 -48 221 14 20 36 60 51 89 14 29 32 53 39 54 6
0 17 2 22 3 6 1 39 5 75 9 36 4 76 9 90 11 14 2 61 9 105 15 82 11 224 48 227
59 7 29 3 519 -5 529 -9 11 -82 36 -138 47 -63 13 -138 25 -179 29 -25 3 -70
9 -100 12 -30 4 -66 8 -80 8 -18 1 -30 12 -42 35 -9 18 -33 61 -54 94 -32 52
-36 64 -27 86 6 14 38 91 71 171 33 80 71 180 83 222 22 75 22 78 4 98 -10 11
-21 20 -25 20 -4 0 -49 25 -99 55 -51 30 -93 55 -95 55 -2 0 -52 28 -112 63
-60 35 -116 62 -124 59 -26 -8 -149 -146 -268 -304 l-74 -97 -100 1 c-55 0
-102 -3 -105 -6 -3 -3 -29 25 -57 62 -104 139 -229 287 -272 324 l-31 27 -94
-52z m661 -828 c138 -33 272 -156 322 -297 57 -161 13 -349 -112 -472 -176
-174 -449 -180 -630 -13 -100 93 -148 201 -148 337 0 140 46 241 157 344 107
99 260 137 411 101z"/>
<path d="M1980 5787 c-57 -14 -75 -64 -110 -297 -19 -126 -24 -169 -35 -270
-4 -30 -9 -58 -13 -62 -4 -3 -48 -22 -98 -41 -50 -19 -109 -44 -131 -55 l-40
-21 -49 37 c-27 20 -123 95 -212 165 -90 71 -177 133 -193 139 -62 21 -133
-26 -337 -227 -179 -174 -289 -303 -297 -347 -9 -47 4 -73 82 -169 38 -46 112
-141 165 -210 l96 -125 -33 -70 c-18 -39 -43 -100 -56 -135 -12 -35 -23 -65
-24 -67 -2 -2 -76 -16 -145 -26 -19 -3 -46 -8 -60 -10 -14 -3 -47 -7 -74 -11
-27 -3 -52 -8 -55 -9 -3 -2 -31 -7 -61 -10 -30 -4 -68 -9 -85 -11 -16 -3 -43
-7 -59 -10 -36 -5 -72 -29 -88 -57 -9 -17 -13 -114 -14 -378 -1 -439 -4 -428
131 -450 39 -6 82 -14 98 -16 31 -5 29 -4 241 -39 88 -14 161 -27 162 -28 1
-1 10 -27 22 -57 21 -59 65 -158 88 -203 9 -15 12 -33 8 -40 -8 -14 -165 -219
-174 -227 -9 -9 -75 -94 -114 -147 -20 -29 -39 -64 -42 -78 -11 -59 63 -151
330 -414 207 -204 207 -204 265 -203 34 1 64 21 264 172 l227 171 57 -30 c32
-16 93 -41 136 -56 52 -19 77 -33 78 -44 0 -9 2 -23 4 -31 1 -8 10 -67 20
-130 20 -143 26 -178 30 -199 1 -9 6 -41 11 -71 4 -30 9 -58 10 -62 1 -5 2
-20 3 -34 0 -15 15 -40 35 -60 l34 -34 365 0 c201 0 376 4 390 9 13 5 31 21
41 36 20 30 23 41 46 175 6 30 12 64 14 75 2 11 7 49 11 85 4 36 9 74 11 85 4
19 16 138 17 162 0 12 7 15 107 51 30 11 81 32 113 46 32 14 59 26 61 26 3 0
181 -138 236 -183 101 -82 196 -150 218 -156 66 -19 133 29 357 254 209 209
277 293 277 340 0 37 -25 82 -76 140 -51 57 -266 336 -266 345 0 5 17 46 38
92 21 46 44 102 52 126 16 51 24 58 70 65 123 19 381 58 410 62 117 17 133 24
160 68 19 30 20 53 20 383 0 215 -4 362 -10 381 -12 34 -53 61 -106 68 -22 3
-64 10 -94 15 -30 5 -75 12 -100 15 -25 4 -87 13 -139 21 -51 8 -112 17 -135
20 -49 7 -48 6 -71 69 -10 28 -28 73 -40 100 -64 147 -60 130 -34 167 12 18
82 109 153 202 151 196 155 202 156 239 0 51 -91 166 -281 354 -237 234 -276
263 -334 249 -19 -5 -133 -86 -270 -191 -93 -73 -193 -145 -199 -145 -4 0 -53
20 -109 44 -56 25 -114 48 -130 51 -16 5 -29 16 -32 29 -6 24 -25 145 -31 196
-2 19 -9 60 -14 90 -10 58 -15 94 -26 175 -10 76 -26 116 -56 138 -27 20 -42
21 -383 21 -195 1 -369 -3 -385 -7z m510 -1381 c361 -45 694 -361 764 -726 17
-89 20 -253 6 -331 -35 -203 -118 -359 -269 -508 -253 -248 -586 -323 -948
-212 -94 28 -247 126 -334 213 -253 253 -329 559 -235 939 3 9 16 42 30 73 14
31 26 59 26 62 0 19 103 156 159 214 84 85 140 129 222 174 170 93 369 128
579 102z"/>
<path d="M5006 2925 c-54 -30 -104 -59 -110 -64 -6 -4 -42 -26 -81 -47 -137
-74 -160 -90 -163 -112 -5 -33 34 -150 110 -328 l68 -162 -44 -74 c-24 -41
-47 -84 -50 -96 -5 -15 -16 -22 -34 -23 -15 0 -34 -2 -42 -3 -8 -2 -40 -6 -70
-10 -116 -13 -137 -16 -195 -26 -91 -17 -147 -32 -177 -47 l-28 -14 0 -258 c0
-283 -2 -273 62 -292 41 -12 165 -35 238 -44 30 -4 62 -9 70 -10 8 -2 50 -6
93 -10 48 -5 77 -12 77 -19 0 -7 23 -49 51 -94 l51 -83 -62 -144 c-72 -170
-107 -268 -116 -323 -6 -38 -5 -41 32 -65 47 -29 356 -208 400 -230 l31 -16
60 62 c58 61 175 205 245 301 l35 48 109 2 109 1 73 -95 c39 -52 78 -102 85
-110 6 -8 32 -39 57 -69 72 -87 118 -131 136 -131 14 0 184 94 339 187 11 7
27 15 35 19 8 4 31 18 51 31 43 28 44 43 10 149 -21 65 -106 275 -137 338 -8
16 -14 34 -14 41 0 11 93 173 108 187 4 3 34 9 67 12 61 6 192 23 255 33 58 9
182 42 195 53 8 7 12 78 13 252 0 134 -1 252 -3 264 -3 11 -16 26 -30 32 -28
13 -196 49 -265 56 -25 3 -83 10 -130 16 -47 5 -90 10 -95 10 -6 0 -19 17 -30
38 -11 20 -34 61 -52 90 -18 29 -33 56 -33 61 0 5 26 72 59 148 66 157 107
271 115 325 l6 36 -106 61 c-224 131 -325 187 -350 195 -16 5 -33 -6 -78 -54
-58 -62 -185 -219 -244 -301 l-33 -46 -110 2 -111 1 -41 54 c-133 177 -283
350 -304 350 -5 0 -52 -25 -107 -55z m700 -828 c122 -44 219 -129 272 -237
153 -313 -80 -671 -428 -659 -249 9 -447 220 -439 468 5 159 89 299 229 387
94 58 265 77 366 41z"/>
</g>
</svg>
